<svg width="148" height="116" viewBox="0 0 148 116" fill="none" xmlns="http://www.w3.org/2000/svg">
<path d="M20.505 20.8173C9.17765 32.0653 0 41.6346 0 42.0543C0 42.7258 69.6179 113.404 72.7598 115.922C73.9173 116.762 79.705 111.221 111.041 79.4079L148 41.8864L106.742 0L90.2056 16.7042L73.5866 33.4084L69.4525 29.3792L65.7318 33.0726C63.6648 35.0872 62.0112 37.1857 62.0112 37.6894C62.0112 38.7806 73.3385 50.3644 73.9173 49.7768C74.1654 49.6089 81.6067 42.0543 90.5363 33.0726L106.659 16.7881L119.061 29.2953L131.464 41.8864L74 100.225L16.1229 42.3061L40.8447 17.2078L42.581 18.8027C43.5732 19.7261 44.7307 20.4815 45.1441 20.4815C45.5575 20.4815 47.6246 18.8027 49.6089 16.7042L53.2469 12.9269L47.1285 6.63132L40.9274 0.419703L20.505 20.8173Z" fill="black"/>
<path d="M53.4943 20.6503C42.2496 31.8984 33.0719 41.4676 33.0719 41.9713C33.0719 42.391 42.1669 51.9602 53.3289 63.2922L73.5859 83.8577L114.927 41.8873L108.726 35.5918L102.524 29.3802L98.8038 33.0736C96.7367 35.0881 95.0831 37.1867 95.0831 37.6064C95.0831 38.0261 95.8272 39.2012 96.7367 40.2085L98.3077 41.9713L73.6686 66.9856L61.5971 54.8981C54.9826 48.2668 49.6082 42.4749 49.6082 42.0552C49.6082 41.6355 55.0652 35.8436 61.7624 29.2123L73.9166 17.2088L75.6529 18.8036C76.6451 19.727 77.6373 20.4825 77.8853 20.4825C78.1334 20.4825 80.2004 18.8036 82.3502 16.7051L86.3189 12.8439L80.1178 6.5483L73.8339 0.252749L53.4943 20.6503Z" fill="black"/>
</svg>
